<svg width="168" height="168" viewBox="0 0 168 168" fill="none" xmlns="http://www.w3.org/2000/svg">
<g clip-path="url(#clip0_143_468)">
<g filter="url(#filter0_dd_143_468)">
<path d="M21 21L70.49 139.79L88.06 88.06L139.79 70.49L21 21Z" fill="#1B97F3"/>
<path d="M91 91L133 133L91 91Z" fill="#1B97F3"/>
<path d="M20.293 20.293C20.5795 20.0064 21.0107 19.9213 21.3848 20.0771L140.175 69.5674C140.559 69.7274 140.803 70.1079 140.789 70.5234C140.775 70.9392 140.505 71.3027 140.111 71.4365L88.8477 88.8477L71.4365 140.111C71.3027 140.505 70.9392 140.775 70.5234 140.789C70.1079 140.803 69.7274 140.559 69.5674 140.175L20.0771 21.3848C19.9213 21.0107 20.0064 20.5795 20.293 20.293ZM90.293 90.293C90.6591 89.9269 91.2381 89.9043 91.6309 90.2246L91.707 90.293L133.707 132.293C134.098 132.683 134.098 133.317 133.707 133.707C133.341 134.073 132.762 134.096 132.369 133.775L132.293 133.707L90.293 91.707C89.9024 91.3165 89.9024 90.6835 90.293 90.293Z" stroke="#A7300C" stroke-width="2" stroke-linecap="round" stroke-linejoin="round"/>
</g>
</g>
<defs>
<filter id="filter0_dd_143_468" x="-30.0001" y="-9.00006" width="220.79" height="220.79" filterUnits="userSpaceOnUse" color-interpolation-filters="sRGB">
<feFlood flood-opacity="0" result="BackgroundImageFix"/>
<feColorMatrix in="SourceAlpha" type="matrix" values="0 0 0 0 0 0 0 0 0 0 0 0 0 0 0 0 0 0 127 0" result="hardAlpha"/>
<feOffset dy="7"/>
<feGaussianBlur stdDeviation="5.25"/>
<feColorMatrix type="matrix" values="0 0 0 0 0 0 0 0 0 0 0 0 0 0 0 0 0 0 0.3 0"/>
<feBlend mode="normal" in2="BackgroundImageFix" result="effect1_dropShadow_143_468"/>
<feColorMatrix in="SourceAlpha" type="matrix" values="0 0 0 0 0 0 0 0 0 0 0 0 0 0 0 0 0 0 127 0" result="hardAlpha"/>
<feMorphology radius="14" operator="dilate" in="SourceAlpha" result="effect2_dropShadow_143_468"/>
<feOffset dy="21"/>
<feGaussianBlur stdDeviation="17.5"/>
<feColorMatrix type="matrix" values="0 0 0 0 0 0 0 0 0 0 0 0 0 0 0 0 0 0 0.15 0"/>
<feBlend mode="normal" in2="effect1_dropShadow_143_468" result="effect2_dropShadow_143_468"/>
<feBlend mode="normal" in="SourceGraphic" in2="effect2_dropShadow_143_468" result="shape"/>
</filter>
<clipPath id="clip0_143_468">
<rect width="168" height="168" fill="white"/>
</clipPath>
</defs>
</svg>
